<?xml version="1.0" encoding="utf-8" ?>
<!DOCTYPE svg PUBLIC "-//W3C//DTD SVG 1.1//EN"
  "http://www.w3.org/Graphics/SVG/1.1/DTD/svg11.dtd">
<svg
  version="1.1"
  xmlns="http://www.w3.org/2000/svg"
  xmlns:xlink="http://www.w3.org/1999/xlink"
  x="0px"
  y="0px"
  viewBox="0 0 1000 1000"
  enable-background="new 0 0 1000 1000"
  xml:space="preserve"
>
<g><path
      d="M500,8.8C230.3,8.8,10,229.7,10,500c0,270.3,220.3,491.2,490,491.2c269.7,0,490-220.8,490-491.2C990,229.7,770.9,8.8,500,8.8L500,8.8z M500,942.9C256.8,942.9,58.2,745,58.2,500S256.8,57.1,500,57.1c243.2,0,441.8,199.1,441.8,442.9C941.8,743.8,744.4,942.9,500,942.9L500,942.9z"
    /><path
      d="M655.9,187.5H344.1c-28.7,0-52,23.3-52,52.1v520.9c0,28.8,23.3,52.1,52,52.1h311.8c28.7,0,52-23.3,52-52.1V239.5C707.9,210.8,684.6,187.5,655.9,187.5L655.9,187.5z M500,760.5c-28.7,0-52-23.3-52-52.1c0-28.8,23.3-52.1,52-52.1c28.7,0,52,23.3,52,52.1C552,737.1,528.7,760.5,500,760.5L500,760.5z M655.9,604.2H344.1V239.5h311.8V604.2L655.9,604.2z"
    /></g>
</svg>
