<?xml version="1.0" encoding="iso-8859-1" ?>
<!DOCTYPE svg PUBLIC "-//W3C//DTD SVG 1.1//EN"
  "http://www.w3.org/Graphics/SVG/1.1/DTD/svg11.dtd">
<svg
  version="1.1"
  id="Capa_1"
  xmlns="http://www.w3.org/2000/svg"
  xmlns:xlink="http://www.w3.org/1999/xlink"
  x="0px"
  y="0px"
  viewBox="0 0 397.406 397.406"
  style="enable-background:new 0 0 397.406 397.406;"
  xml:space="preserve"
>
<g>
	<path
      d="M397.112,153.585c-0.74-2.278-2.764-3.898-5.149-4.12l-134.331-12.522L204.213,13.057c-0.948-2.199-3.114-3.624-5.51-3.624
		c-2.396,0-4.562,1.425-5.51,3.624l-53.419,123.886L5.443,149.465c-2.386,0.222-4.409,1.842-5.149,4.12
		c-0.74,2.278-0.055,4.778,1.744,6.36l101.315,89.087l-29.6,131.625c-0.525,2.337,0.389,4.763,2.327,6.17
		c1.936,1.408,4.527,1.529,6.587,0.307l116.035-68.827l116.036,68.827c0.946,0.561,2.005,0.839,3.061,0.839
		c1.241,0,2.479-0.385,3.526-1.146c1.939-1.408,2.853-3.833,2.327-6.17l-29.601-131.625l101.315-89.087
		C397.167,158.363,397.853,155.863,397.112,153.585z M283.456,242.371c-1.647,1.449-2.373,3.682-1.892,5.822l27.328,121.522
		l-107.129-63.543c-0.943-0.56-2.002-0.839-3.061-0.839c-1.059,0-2.117,0.28-3.061,0.839L88.514,369.714l27.328-121.522
		c0.481-2.141-0.244-4.374-1.892-5.822l-93.539-82.249l124.021-11.562c2.185-0.204,4.084-1.583,4.953-3.598l49.318-114.376
		l49.318,114.376c0.869,2.015,2.769,3.395,4.953,3.598l124.021,11.562L283.456,242.371z"
    />
	<path
      d="M200.54,106.018c-0.316-0.733-1.038-1.208-1.837-1.208s-1.521,0.475-1.837,1.208l-29.485,68.378l-74.143,6.913
		c-0.795,0.074-1.47,0.614-1.717,1.373c-0.246,0.759-0.018,1.593,0.582,2.12l55.921,49.172l-16.338,72.65
		c-0.175,0.779,0.13,1.588,0.775,2.057c0.646,0.469,1.511,0.51,2.196,0.102l64.046-37.988l64.047,37.988
		c0.315,0.187,0.669,0.28,1.021,0.28c0.414,0,0.826-0.129,1.176-0.382c0.645-0.469,0.95-1.278,0.775-2.057l-16.337-72.65
		l55.92-49.172c0.6-0.527,0.828-1.361,0.582-2.12c-0.247-0.759-0.922-1.299-1.717-1.373l-74.145-6.913L200.54,106.018z"
    />
</g>
</svg>
