<?xml version="1.0" encoding="utf-8" ?>
<!DOCTYPE svg PUBLIC "-//W3C//DTD SVG 1.1//EN"
  "http://www.w3.org/Graphics/SVG/1.1/DTD/svg11.dtd">
<svg
  version="1.1"
  xmlns="http://www.w3.org/2000/svg"
  xmlns:xlink="http://www.w3.org/1999/xlink"
  x="0px"
  y="0px"
  viewBox="0 0 1000 1000"
  enable-background="new 0 0 1000 1000"
  xml:space="preserve"
>
<g><path
      d="M549.5,435.7c-3.8-6.3-9.1-11.5-15.8-15.5c-6.6-4-14.8-6.1-24.5-6.1c-12.3,0-23.1,3.5-32.4,10.6c-9.2,7.1-17.1,16-23.5,27c-6.4,10.9-11.2,23-14.7,36.1c-3.3,13.1-5.1,25.9-5.1,38c0,6.1,0.6,12.5,1.9,19.5c1.3,6.8,3.8,13.1,7.7,19.1c3.8,5.8,8.8,10.6,15,14.4c6.2,3.8,14.4,5.7,24.6,5.7c13.9,0,25.7-3.4,35.4-10.2c9.7-6.8,17.7-15.4,23.9-25.9c6.2-10.4,10.6-21.7,13.5-33.9c2.8-12.1,4.2-23.4,4.2-33.5c0-8.1-0.8-16-2.3-24C556.1,449.2,553.5,442.1,549.5,435.7z"
    /><path
      d="M500,10C229.4,10,10,229.4,10,500s219.4,490,490,490c270.6,0,490-219.4,490-490C990,229.4,770.6,10,500,10z M770.4,541.7c-8.5,23.4-19.7,42.8-33.9,58.6c-14.2,15.8-30.2,27.5-48.4,35.4s-37.3,11.8-57.2,11.8c-20.5,0-36.9-4.8-49.3-14.4c-12.3-9.6-18.5-21.9-18.5-36.5h-3.8c-7.7,12.1-19.5,23.8-35.4,34.6c-15.9,10.9-35.4,16.4-58.5,16.4c-34.9,0-61.8-11.4-80.7-34.2c-19-22.9-28.4-52.4-28.4-89.1c0-21.4,3.5-42.3,10.7-63.2c7.2-20.8,17.4-39.3,30.7-55.6c13.3-16.2,29.2-29.3,47.6-39.2c18.5-9.9,38.9-14.8,61.5-14.8c19.5,0,35.9,4,49.3,12.1c13.3,8.1,22,18.1,26.2,29.7h0.8l6.2-30.5h68.5l-30.2,143.9c-1,7.1-2.4,14.9-4.2,23.6c-1.8,8.6-2.7,16.7-2.7,24.4c0,8.6,1.6,15.8,5.1,21.7c3.3,5.8,9.9,8.7,19.6,8.7c20,0,36.5-10.6,49.7-32c13-21.4,19.6-49.9,19.6-85.9c0-30.5-5.2-57.5-15.4-81c-10.2-23.6-24.5-43.3-42.7-59.4c-18.2-15.9-39.9-28.1-65-36.1c-25.1-8.1-52.6-12.1-82.3-12.1c-32.3,0-61.9,5.7-88.8,17.1c-26.9,11.4-49.9,27.2-68.9,47.1c-19,20.1-33.7,43.6-44.2,70.8c-10.6,27-15.9,56.4-15.9,87.8c0,33.5,5.6,63.7,16.6,90.6c11,26.9,26.5,49.8,46.5,68.9c20,19.1,43.9,33.6,71.5,43.7c27.7,10.1,58.3,15.2,91.5,15.2c41.6,0,77.3-6.6,107.3-19.8c29.9-13.1,57.5-31.5,82.6-54.8l42.5,45.7c-30.2,32-66.1,55.3-107.7,70c-41.6,14.8-85.4,22.1-131.5,22.1c-44.1,0-84.3-7-120.4-21c-36.1-13.9-67.1-33.4-92.6-58.3c-25.7-24.9-45.5-54.7-59.6-89.5c-14.2-34.8-21.1-72.7-21.1-113.7c0-40.6,7.7-78.1,23.1-112.6c15.4-34.5,36.4-64.4,63.1-89.8c26.7-25.4,57.8-45.2,93.5-59.8c35.5-14.3,73.7-21.5,114.1-21.5c34.9,0,68.7,5.1,101.5,15.2c32.9,10.1,61.9,25.4,87.3,45.6c25.4,20.3,45.6,45.6,60.8,76.1c15.2,30.5,22.7,66.2,22.7,107.3C783.1,491.5,778.9,518.4,770.4,541.7z"
    /></g>
</svg>
