<?xml version="1.0" encoding="utf-8" ?>
<!DOCTYPE svg PUBLIC "-//W3C//DTD SVG 1.1//EN"
  "http://www.w3.org/Graphics/SVG/1.1/DTD/svg11.dtd">
<svg
  version="1.1"
  xmlns="http://www.w3.org/2000/svg"
  xmlns:xlink="http://www.w3.org/1999/xlink"
  x="0px"
  y="0px"
  viewBox="0 0 1000 1000"
  enable-background="new 0 0 1000 1000"
  xml:space="preserve"
>
<g><path
      d="M783.3,317.9c-15.4,0-28,12.5-28,28c0,15.5,12.5,28,28,28c15.5,0,28-12.5,28-28C811.3,330.5,798.8,317.9,783.3,317.9z M672,208.2H328.1v79.9H672L672,208.2z M246,563h40.8v-79.8h41.2v133.2c1.8,64.8,143.3,30.4,143.3,30.4s-29.5,145.1,31.8,145.1H672V483.2h41.2v81.5H754V424.2H246V563z M386.5,488.9h236.8v41.2l-236.8,0V488.9z M386.5,569.7h236.8v41.2l-236.8,0V569.7z M500,10C229.3,10,10,229.3,10,500s219.3,490,490,490c270.7,0,490-219.3,490-490S770.7,10,500,10z M713.2,621.8V833H449.2L286.9,670.8v-50.6H140.7V323.1c0-19.3,15.7-35,35-35h111.3V166.9h426.4v121.1h111.1c19.3,0,35,15.7,35,35v298.8H713.2z"
    />
    </g>
</svg>
